<?xml version="1.0" encoding="UTF-8"?>
<svg width="11px" height="16px" viewBox="0 0 11 16" version="1.1" xmlns="http://www.w3.org/2000/svg" xmlns:xlink="http://www.w3.org/1999/xlink">
    <title>pause-green</title>
    <g id="Page-1" stroke="none" stroke-width="1" fill="none" fill-rule="evenodd">
        <g id="pause-green" transform="translate(0.000000, 0.019720)" fill="#04D361" fill-rule="nonzero">
            <path d="M1.5,0 C0.671573,0 0,0.529491586 0,1.18265234 L0,13.7976106 C0,14.4507501 0.671573,14.9802629 1.5,14.9802629 C2.32843,14.9802629 3,14.4507501 3,13.7976106 L3,1.18265234 C3,0.529491586 2.32843,0 1.5,0 Z M9.5,0 C8.67157,0 8,0.529491586 8,1.18265234 L8,13.7976106 C8,14.4507501 8.67157,14.9802629 9.5,14.9802629 C10.3284,14.9802629 11,14.4507501 11,13.7976106 L11,1.18265234 C11,0.529491586 10.3284,0 9.5,0 Z" id="Shape"></path>
        </g>
    </g>
</svg>